<svg width="20" height="20" viewBox="0 0 20 20" fill="none" xmlns="http://www.w3.org/2000/svg">
<path d="M0 10.0614C0.00116354 15.0111 3.5784 19.2255 8.437 20.0012V12.9692H5.9V10.0614H8.44V7.84786C8.32645 6.79898 8.68252 5.75363 9.41164 4.99534C10.1408 4.23703 11.1674 3.84437 12.213 3.92385C12.9635 3.93604 13.7122 4.0033 14.453 4.12508V6.59922H13.189C12.7538 6.54187 12.3164 6.68647 11.9998 6.99229C11.6832 7.2981 11.5218 7.73203 11.561 8.17184V10.0614H14.332L13.889 12.9702H11.561V20.0012C16.8155 19.1657 20.5001 14.3373 19.9455 9.01407C19.3909 3.69079 14.7913 -0.263846 9.47882 0.0151105C4.16636 0.294067 0.000844477 4.70896 0 10.0614Z" fill="#0D0D15"/>
</svg>
