<svg width="21" height="19" viewBox="0 0 21 19" fill="none" xmlns="http://www.w3.org/2000/svg">
<path fill-rule="evenodd" clip-rule="evenodd" d="M7.41257 3.01109C6.86348 2.95252 6.30821 3.00827 5.78173 3.17484C5.25524 3.3414 4.76895 3.61518 4.35347 3.97892C3.93799 4.34265 3.60232 4.78848 3.3676 5.28832C3.13289 5.78816 3.00421 6.33118 2.98967 6.8832C2.97513 7.43521 3.07504 7.98426 3.28312 8.49576C3.49119 9.00726 3.80292 9.47014 4.19868 9.85525L4.20499 9.8614L4.20497 9.86142L11.0013 16.5925L17.7976 9.86142C17.8183 9.8409 17.8397 9.82148 17.8617 9.80314C18.2254 9.43007 18.5129 8.98932 18.7079 8.50551C18.9136 7.99491 19.0116 7.44734 18.996 6.89708C18.9803 6.34682 18.8513 5.80571 18.6169 5.30762C18.3825 4.80954 18.0478 4.36519 17.6338 4.0024C17.2198 3.63961 16.7353 3.36618 16.2108 3.19922C15.6862 3.03227 15.1328 2.97538 14.5853 3.03213C14.0377 3.08887 13.5078 3.25802 13.0286 3.52899C12.5495 3.79997 12.1314 4.16693 11.8005 4.60691C11.6111 4.85892 11.3138 5.00681 10.9985 5.00593C10.6832 5.00505 10.3868 4.85552 10.1987 4.60245C9.86928 4.15925 9.45168 3.78906 8.97218 3.51518C8.49268 3.2413 7.96166 3.06967 7.41257 3.01109ZM19.136 11.3508L11.705 18.7104C11.3152 19.0964 10.6873 19.0964 10.2976 18.7104L2.80057 11.2854C2.20851 10.7084 1.74207 10.0152 1.43053 9.24938C1.11842 8.48212 0.968551 7.65855 0.990362 6.83053C1.01217 6.00251 1.20519 5.18798 1.55727 4.43822C1.90934 3.68846 2.41284 3.01972 3.03606 2.47411C3.65928 1.9285 4.38872 1.51784 5.17845 1.26799C5.96818 1.01814 6.80108 0.934515 7.62472 1.02238C8.44835 1.11024 9.24487 1.36768 9.96413 1.7785C10.3382 1.99215 10.6871 2.24487 11.0054 2.53174C11.3233 2.24834 11.6714 1.99885 12.0441 1.78808C12.7629 1.38162 13.5578 1.12789 14.3791 1.04278C15.2005 0.957664 16.0305 1.04299 16.8173 1.29343C17.6042 1.54386 18.3308 1.954 18.9519 2.49819C19.5729 3.04238 20.0749 3.7089 20.4265 4.45603C20.7781 5.20316 20.9717 6.01482 20.9952 6.84021C21.0187 7.66559 20.8715 8.48695 20.563 9.25286C20.2544 10.0188 19.7911 10.7127 19.202 11.2914C19.1807 11.3123 19.1586 11.3321 19.136 11.3508Z" fill="black"/>
</svg>
