<svg width="22" height="22" viewBox="0 0 22 22" fill="none" xmlns="http://www.w3.org/2000/svg">
<path d="M14.9984 8V5C14.9984 2.79086 13.2076 1 10.9984 1C8.78928 1 6.99842 2.79086 6.99842 5V8M2.59042 9.35196L1.99042 15.752C1.81982 17.5717 1.73452 18.4815 2.03647 19.1843C2.30171 19.8016 2.76653 20.3121 3.35643 20.6338C4.02794 21 4.94178 21 6.76946 21H15.2274C17.055 21 17.9689 21 18.6404 20.6338C19.2303 20.3121 19.6951 19.8016 19.9604 19.1843C20.2623 18.4815 20.177 17.5717 20.0064 15.752L19.4064 9.35197C19.2624 7.81535 19.1903 7.04704 18.8448 6.46616C18.5404 5.95458 18.0908 5.54511 17.553 5.28984C16.9424 5 16.1707 5 14.6274 5L7.36946 5C5.82611 5 5.05443 5 4.44383 5.28984C3.90608 5.54511 3.45642 5.95458 3.15208 6.46616C2.80651 7.04704 2.73448 7.81534 2.59042 9.35196Z" stroke="#F8F7FF" stroke-width="2" stroke-linecap="round" stroke-linejoin="round"/>
</svg>
