<svg width="151" height="150" viewBox="0 0 151 150" fill="none" xmlns="http://www.w3.org/2000/svg">
<path d="M9.88281 79.8253H19.4356C24.6965 79.8253 28.9612 75.5605 28.9612 70.2997C28.9612 65.0389 33.226 60.7741 38.4868 60.7741H51.4416C59.6485 60.7741 66.3016 54.1211 66.3016 45.9142C66.3016 37.7072 59.6485 31.0542 51.4416 31.0542" stroke="#0F73F6" stroke-width="3.5" stroke-miterlimit="10" stroke-linejoin="round"/>
<path d="M106.309 114.551C118.759 114.551 128.852 104.458 128.852 92.0075C128.852 82.3943 122.834 74.1865 114.361 70.9451" stroke="#0F73F6" stroke-width="3.5" stroke-miterlimit="10" stroke-linejoin="round"/>
<path d="M95.2088 69.4648H70.9557C66.0924 69.4648 62.1499 73.4073 62.1499 78.2706C62.1499 83.1339 58.2074 87.0764 53.3441 87.0764H52.0378C44.4511 87.0764 38.3008 93.2267 38.3008 100.813C38.3005 108.4 44.4508 114.551 52.0375 114.551" stroke="#0F73F6" stroke-width="3.5" stroke-miterlimit="10" stroke-linejoin="round"/>
<path d="M93.7618 114.551V120.996C93.7618 124.555 90.8761 127.441 87.3165 127.441H64.2812C60.7217 127.441 57.8359 124.555 57.8359 120.996V114.551" stroke="#0F73F6" stroke-width="3.5" stroke-miterlimit="10" stroke-linejoin="round"/>
<path d="M118.918 65.296L103.867 54.7573" stroke="#0F73F6" stroke-width="3.5" stroke-miterlimit="10" stroke-linejoin="round"/>
<path d="M134.688 140.332H16.9141C9.79463 140.332 4.02344 134.561 4.02344 127.441V114.551H147.578V127.441C147.578 134.561 141.807 140.332 134.688 140.332Z" stroke="#0F73F6" stroke-width="3.5" stroke-miterlimit="10" stroke-linecap="round" stroke-linejoin="round"/>
<path d="M96.4297 69.3617C99.65 61.6341 105.246 51.7045 112.437 41.4339C126.731 21.021 141.915 6.9919 146.352 10.0988C150.789 13.2058 142.799 32.2725 128.506 52.6854C121.289 62.9923 113.845 71.6718 107.671 77.3396" stroke="#0F73F6" stroke-width="3.5" stroke-miterlimit="10" stroke-linecap="round" stroke-linejoin="round"/>
<path d="M84.2261 84.0278C85.0725 88.3743 84.0292 92.6431 81.6758 95.9941C90.1106 99.3969 100.03 96.8654 105.731 89.3944C110.002 83.7975 108.996 75.7005 103.225 71.6686C97.6953 67.8058 90.0808 69.1517 86.2109 74.6783C84.2296 77.5081 83.6141 80.8854 84.2261 84.0278Z" stroke="#0F73F6" stroke-width="3.5" stroke-miterlimit="10" stroke-linecap="round" stroke-linejoin="round"/>
<path d="M141.719 114.551V42.7734C141.719 40.1089 140.83 37.6521 139.332 35.6836" stroke="#0F73F6" stroke-width="3.5" stroke-miterlimit="10" stroke-linejoin="round"/>
<path d="M120.042 31.0547H21.6016C15.1296 31.0547 9.88281 36.3015 9.88281 42.7734V114.551" stroke="#0F73F6" stroke-width="3.5" stroke-miterlimit="10" stroke-linejoin="round"/>
</svg>
