<svg width="151" height="150" fill="none" xmlns="http://www.w3.org/2000/svg"><path d="M75.398 60.938v28.124M66.023 60.938h18.75M108.211 107.812H42.586V42.188h65.625v65.624z" stroke="#0F73F6" stroke-width="4" stroke-miterlimit="10" stroke-linecap="round" stroke-linejoin="round"/><mask id="a" style="mask-type:luminance" maskUnits="userSpaceOnUse" x="0" y="0" width="151" height="150"><path d="M.398 0h150v150h-150V0z" fill="#fff"/></mask><g mask="url(#a)" stroke="#0F73F6" stroke-width="4" stroke-miterlimit="10" stroke-linecap="round" stroke-linejoin="round"><path d="M23.836 23.438H4.793V4.395h19.043v19.043zM23.836 145.605H4.793v-19.042h19.043v19.042zM146.004 145.605h-19.043v-19.042h19.043v19.042zM14.46 23.438v103.124M126.961 23.438h19.043V4.395h-19.043v19.043zM136.336 42.188v9.374M136.336 70.313v9.374M136.336 98.438v9.374M23.836 14.063H126.96M108.211 135.938h-9.375M80.086 135.938H70.71M51.96 135.938h-9.374"/></g></svg>