<svg width="151" height="150" fill="none" xmlns="http://www.w3.org/2000/svg"><path d="M9.883 79.825h9.553A9.526 9.526 0 0028.96 70.3a9.526 9.526 0 019.526-9.526h12.955c8.206 0 14.86-6.653 14.86-14.86s-6.654-14.86-14.86-14.86M106.309 114.551c12.45 0 22.543-10.093 22.543-22.544 0-9.613-6.018-17.82-14.491-21.062M95.209 69.465H70.956a8.806 8.806 0 00-8.806 8.806 8.806 8.806 0 01-8.806 8.805h-1.306c-7.587 0-13.737 6.15-13.737 13.737s6.15 13.738 13.736 13.738M93.762 114.551v6.445a6.445 6.445 0 01-6.445 6.445H64.28a6.446 6.446 0 01-6.445-6.445v-6.445M118.918 65.296l-15.051-10.539" stroke="#0F73F6" stroke-width="4" stroke-miterlimit="10" stroke-linejoin="round"/><path d="M134.688 140.332H16.914c-7.12 0-12.89-5.771-12.89-12.891v-12.89h143.554v12.89c0 7.12-5.771 12.891-12.89 12.891zM96.43 69.362c3.22-7.728 8.816-17.657 16.007-27.928 14.294-20.413 29.478-34.442 33.915-31.335 4.437 3.107-3.553 22.174-17.846 42.586-7.217 10.307-14.661 18.987-20.835 24.655" stroke="#0F73F6" stroke-width="4" stroke-miterlimit="10" stroke-linecap="round" stroke-linejoin="round"/><path d="M84.226 84.028a15.574 15.574 0 01-2.55 11.966c8.435 3.403 18.354.871 24.055-6.6 4.271-5.597 3.265-13.694-2.506-17.725-5.53-3.863-13.144-2.517-17.014 3.01a12.189 12.189 0 00-1.985 9.349z" stroke="#0F73F6" stroke-width="4" stroke-miterlimit="10" stroke-linecap="round" stroke-linejoin="round"/><path d="M141.719 114.551V42.773c0-2.664-.889-5.12-2.387-7.09M120.042 31.055h-98.44c-6.472 0-11.72 5.246-11.72 11.718v71.778" stroke="#0F73F6" stroke-width="4" stroke-miterlimit="10" stroke-linejoin="round"/></svg>