<svg width="150" height="150" fill="none" xmlns="http://www.w3.org/2000/svg"><path d="M72.371 62.056H50.227v-22.2M146.777 6.335H3.223v15.75h143.554V6.335zM10.773 99.856V24.26M139.227 24.26v75.596M75 120.111v5.492M75 143.665c4.55 0 8.238-3.697 8.238-8.258 0-4.56-3.689-8.257-8.238-8.257-4.55 0-8.238 3.697-8.238 8.257 0 4.561 3.688 8.258 8.238 8.258z" stroke="#0F73F6" stroke-width="4" stroke-miterlimit="10" stroke-linecap="round" stroke-linejoin="round"/><path d="M50.228 86.888C63.91 86.888 75 75.77 75 62.058c0-13.714-11.09-24.83-24.772-24.83-13.68 0-24.771 11.116-24.771 24.83 0 13.713 11.09 24.83 24.771 24.83zM121.525 37.227h-31.94v19.577h31.94V37.227zM89.586 70.412h31.939M89.586 83.373h31.939M146.777 102.03H3.223v15.75h143.554v-15.75z" stroke="#0F73F6" stroke-width="4" stroke-miterlimit="10" stroke-linecap="round" stroke-linejoin="round"/></svg>