<svg width="22" height="22" fill="none" xmlns="http://www.w3.org/2000/svg"><path d="M14.998 8V5a4 4 0 10-8 0v3M2.59 9.352l-.6 6.4c-.17 1.82-.255 2.73.046 3.432a3 3 0 001.32 1.45C4.028 21 4.942 21 6.77 21h8.458c1.828 0 2.742 0 3.413-.366a3 3 0 001.32-1.45c.302-.703.217-1.612.046-3.432l-.6-6.4c-.144-1.537-.216-2.305-.561-2.886a3 3 0 00-1.292-1.176C16.943 5 16.171 5 14.627 5H7.37c-1.543 0-2.315 0-2.925.29a3 3 0 00-1.292 1.176c-.345.581-.418 1.35-.562 2.886z" stroke="#F8F7FF" stroke-width="2" stroke-linecap="round" stroke-linejoin="round"/></svg>