<svg width="24" height="20" fill="none" xmlns="http://www.w3.org/2000/svg"><path d="M23.547.423c-.41-.308-1.053-.353-1.718-.116-.7.25-19.794 7.52-20.57 7.818-.142.043-1.377.452-1.25 1.363.114.822 1.106 1.162 1.227 1.201l4.854 1.476c.323.952 1.51 4.463 1.772 5.213.164.468.431 1.083.899 1.21.41.14.819.011 1.083-.173l2.968-2.444 4.79 3.317.115.061c.325.128.637.192.934.192a1.874 1.874 0 001.696-1.053l3.579-16.514c.218-.882-.085-1.33-.38-1.551zM10.372 12.755l-1.638 3.877-1.638-4.846 12.555-8.238-9.28 9.207z" fill="#0D0D15"/></svg>