<svg width="24" height="24" fill="none" xmlns="http://www.w3.org/2000/svg"><path d="M19.644 6.18a4.274 4.274 0 001.804-2.375c-.805.5-1.686.852-2.605 1.041-1.274-1.41-3.293-1.753-4.928-.837-1.635.915-2.481 2.863-2.067 4.754C8.549 8.59 5.475 6.96 3.392 4.277 2.305 6.24 2.86 8.748 4.662 10.01a3.951 3.951 0 01-1.858-.538v.054c0 2.044 1.377 3.805 3.292 4.21a3.933 3.933 0 01-1.853.074c.539 1.748 2.078 2.946 3.833 2.981A8.002 8.002 0 012 18.571a11.242 11.242 0 006.29 1.928c3.103.023 6.085-1.258 8.279-3.553 2.194-2.297 3.417-5.417 3.395-8.664 0-.186-.004-.371-.012-.555A8.561 8.561 0 0022 5.504a7.92 7.92 0 01-2.356.676z" fill="#0D0D15"/></svg>